<mxfile host="Electron" agent="Mozilla/5.0 (Windows NT 10.0; Win64; x64) AppleWebKit/537.36 (KHTML, like Gecko) draw.io/26.0.4 Chrome/128.0.6613.186 Electron/32.2.5 Safari/537.36" version="26.0.4">
  <diagram name="Seite-1" id="vembz-k1M_uIDPdcXSsB">
    <mxGraphModel dx="1216" dy="655" grid="1" gridSize="10" guides="1" tooltips="1" connect="1" arrows="1" fold="1" page="1" pageScale="1" pageWidth="1169" pageHeight="827" math="0" shadow="0">
      <root>
        <mxCell id="0" />
        <mxCell id="1" parent="0" />
        <mxCell id="sZ_4-mn3go4B8Lr2ESdX-1" value="" style="rounded=0;whiteSpace=wrap;html=1;" vertex="1" parent="1">
          <mxGeometry x="120" y="80" width="630" height="90" as="geometry" />
        </mxCell>
        <mxCell id="sZ_4-mn3go4B8Lr2ESdX-2" value="Heute&lt;br&gt;x Aufgaben" style="rounded=0;whiteSpace=wrap;html=1;" vertex="1" parent="1">
          <mxGeometry x="120" y="80" width="120" height="90" as="geometry" />
        </mxCell>
        <mxCell id="sZ_4-mn3go4B8Lr2ESdX-3" value="" style="rounded=0;whiteSpace=wrap;html=1;" vertex="1" parent="1">
          <mxGeometry x="120" y="170" width="630" height="60" as="geometry" />
        </mxCell>
        <mxCell id="sZ_4-mn3go4B8Lr2ESdX-4" value="Überfällig" style="rounded=0;whiteSpace=wrap;html=1;" vertex="1" parent="1">
          <mxGeometry x="120" y="170" width="120" height="60" as="geometry" />
        </mxCell>
        <mxCell id="sZ_4-mn3go4B8Lr2ESdX-5" value="Einklapp zeichen" style="rounded=0;whiteSpace=wrap;html=1;" vertex="1" parent="1">
          <mxGeometry x="630" y="170" width="120" height="60" as="geometry" />
        </mxCell>
        <mxCell id="sZ_4-mn3go4B8Lr2ESdX-7" value="" style="rounded=0;whiteSpace=wrap;html=1;" vertex="1" parent="1">
          <mxGeometry x="120" y="230" width="630" height="150" as="geometry" />
        </mxCell>
        <mxCell id="sZ_4-mn3go4B8Lr2ESdX-9" value="" style="rounded=0;whiteSpace=wrap;html=1;" vertex="1" parent="1">
          <mxGeometry x="120" y="230" width="630" height="60" as="geometry" />
        </mxCell>
        <mxCell id="sZ_4-mn3go4B8Lr2ESdX-10" value="" style="ellipse;whiteSpace=wrap;html=1;aspect=fixed;" vertex="1" parent="1">
          <mxGeometry x="130" y="240" width="40" height="40" as="geometry" />
        </mxCell>
        <mxCell id="sZ_4-mn3go4B8Lr2ESdX-13" value="Titel/Task" style="rounded=0;whiteSpace=wrap;html=1;" vertex="1" parent="1">
          <mxGeometry x="180" y="230" width="490" height="60" as="geometry" />
        </mxCell>
        <mxCell id="sZ_4-mn3go4B8Lr2ESdX-14" value="Datum&lt;br&gt;Zeit" style="rounded=0;whiteSpace=wrap;html=1;" vertex="1" parent="1">
          <mxGeometry x="670" y="230" width="80" height="60" as="geometry" />
        </mxCell>
        <mxCell id="sZ_4-mn3go4B8Lr2ESdX-15" value="" style="rounded=0;whiteSpace=wrap;html=1;" vertex="1" parent="1">
          <mxGeometry x="120" y="380" width="630" height="60" as="geometry" />
        </mxCell>
        <mxCell id="sZ_4-mn3go4B8Lr2ESdX-16" value="29. Jan. - Mittwoch" style="rounded=0;whiteSpace=wrap;html=1;" vertex="1" parent="1">
          <mxGeometry x="120" y="380" width="230" height="60" as="geometry" />
        </mxCell>
        <mxCell id="sZ_4-mn3go4B8Lr2ESdX-17" value="" style="rounded=0;whiteSpace=wrap;html=1;" vertex="1" parent="1">
          <mxGeometry x="120" y="440" width="630" height="60" as="geometry" />
        </mxCell>
        <mxCell id="sZ_4-mn3go4B8Lr2ESdX-18" value="" style="ellipse;whiteSpace=wrap;html=1;aspect=fixed;" vertex="1" parent="1">
          <mxGeometry x="130" y="450" width="40" height="40" as="geometry" />
        </mxCell>
        <mxCell id="sZ_4-mn3go4B8Lr2ESdX-19" value="Titel/Task" style="rounded=0;whiteSpace=wrap;html=1;" vertex="1" parent="1">
          <mxGeometry x="180" y="440" width="490" height="60" as="geometry" />
        </mxCell>
        <mxCell id="sZ_4-mn3go4B8Lr2ESdX-20" value="Datum&lt;br&gt;Zeit" style="rounded=0;whiteSpace=wrap;html=1;" vertex="1" parent="1">
          <mxGeometry x="670" y="440" width="80" height="60" as="geometry" />
        </mxCell>
        <mxCell id="sZ_4-mn3go4B8Lr2ESdX-21" value="" style="rounded=0;whiteSpace=wrap;html=1;" vertex="1" parent="1">
          <mxGeometry x="120" y="560" width="640" height="90" as="geometry" />
        </mxCell>
        <mxCell id="sZ_4-mn3go4B8Lr2ESdX-22" value="29&lt;br&gt;Heute" style="rounded=1;whiteSpace=wrap;html=1;" vertex="1" parent="1">
          <mxGeometry x="130" y="575" width="120" height="60" as="geometry" />
        </mxCell>
        <mxCell id="sZ_4-mn3go4B8Lr2ESdX-23" value="Demnächst" style="rounded=1;whiteSpace=wrap;html=1;" vertex="1" parent="1">
          <mxGeometry x="300" y="575" width="120" height="60" as="geometry" />
        </mxCell>
        <mxCell id="sZ_4-mn3go4B8Lr2ESdX-24" value="Suchen" style="rounded=1;whiteSpace=wrap;html=1;" vertex="1" parent="1">
          <mxGeometry x="450" y="575" width="120" height="60" as="geometry" />
        </mxCell>
        <mxCell id="sZ_4-mn3go4B8Lr2ESdX-25" value="Browsen" style="rounded=1;whiteSpace=wrap;html=1;" vertex="1" parent="1">
          <mxGeometry x="620" y="575" width="120" height="60" as="geometry" />
        </mxCell>
        <mxCell id="sZ_4-mn3go4B8Lr2ESdX-26" value="+" style="rounded=1;whiteSpace=wrap;html=1;" vertex="1" parent="1">
          <mxGeometry x="650" y="480" width="100" height="60" as="geometry" />
        </mxCell>
      </root>
    </mxGraphModel>
  </diagram>
</mxfile>
